<?xml version="1.0" encoding="UTF-8" standalone="no"?><svg xmlns="http://www.w3.org/2000/svg" xmlns:xlink="http://www.w3.org/1999/xlink" contentScriptType="text/ecmascript" width="1280" zoomAndPan="magnify" contentStyleType="text/css" height="720" preserveAspectRatio="xMidYMid meet" overflow="hidden" version="1.0"><defs><clipPath id="clip0"><rect x="0" width="1280" height="720" y="0"/></clipPath></defs><g clip-path="url(#clip0)"><rect fill="#FFFFFF" x="0" width="1280" height="720" y="0"/><text fill="#0000FF" font-size="13" font-family="Arial,Arial_MSFontService,sans-serif" font-weight="400" transform="translate(16.9988 18)">[AMD Official Use Only <tspan x="139.667" font-size="13" y="0">-</tspan><tspan x="147.833" font-size="13" y="0">General]</tspan></text><path fill="#FFFF00" stroke-miterlimit="8" d="M328.5 208.5C328.5 167.079 363.646 133.5 407 133.5 450.354 133.5 485.5 167.079 485.5 208.5 485.5 249.921 450.354 283.5 407 283.5 363.646 283.5 328.5 249.921 328.5 208.5Z" stroke-width="1.33333" fill-rule="evenodd" stroke="#4472C4"/><rect x="10.5001" y="69.5001" fill="none" width="657" stroke-dasharray="5.33333 4" height="545" stroke="#FF0000" stroke-width="1.33333" stroke-miterlimit="8"/><rect x="42.5001" y="99.5001" fill="#FF0000" width="158" stroke-linejoin="round" height="288" stroke="#2F528F" stroke-miterlimit="10"/><text fill="#FFFFFF" font-size="32" font-family="Calibri,Calibri_MSFontService,sans-serif" font-weight="400" transform="translate(76.5207 249)">Vivado</text><rect x="320.5" y="305.5" fill="#DEEBF7" width="160" stroke-linejoin="round" stroke-dasharray="4 3" height="35" stroke="#4472C4" stroke-miterlimit="10"/><text font-size="21" font-family="Calibri,Calibri_MSFontService,sans-serif" font-weight="400" transform="translate(360.581 329)">Petalinux</text><rect x="506.5" y="99.5001" fill="#00B050" width="118" stroke-linejoin="round" height="288" stroke="#4472C4" stroke-miterlimit="10"/><text fill="#FFFFFF" font-size="32" font-family="Calibri,Calibri_MSFontService,sans-serif" font-weight="400" transform="translate(522.638 259)">Vitis/X<tspan x="18.76" font-size="32" y="38">SCT</tspan><tspan fill="#000000" x="-428.947" y="-209" font-size="27">STEP1</tspan><tspan fill="#000000" x="-91.2855" y="-213" font-size="27">STEP2</tspan></text><rect x="785.5" y="71.5001" fill="none" width="358" stroke-dasharray="5.33333 4" height="545" stroke="#FF0000" stroke-width="1.33333" stroke-miterlimit="8"/><rect fill="#00B050" x="827" width="148" height="288" y="99"/><text fill="#FFFFFF" font-size="32" font-family="Calibri,Calibri_MSFontService,sans-serif" font-weight="400" transform="translate(872.965 278)">Vitis<tspan fill="#000000" x="15.8767" y="179" font-size="24">xclbin</tspan><tspan fill="#000000" x="25.2104" y="145" font-size="24">elf</tspan><tspan fill="#000000" x="-23.883" y="-228" font-size="27">STEP3</tspan><tspan fill="#C00000" x="-441.613" y="363" font-size="24">Platform Creation</tspan><tspan fill="#C00000" x="56.9943" y="363" font-size="24">Application </tspan><tspan fill="#C00000" x="172.741" y="363" font-size="24">D</tspan><tspan fill="#C00000" x="187.574" y="363" font-size="24">evelopment</tspan></text><path fill="#FF0000" d="M667.5 248.167 775.171 248.167 775.171 248.833 667.5 248.833ZM773.837 244.5 781.837 248.5 773.837 252.5Z"/><text font-size="21" font-family="Calibri,Calibri_MSFontService,sans-serif" font-weight="400" transform="translate(366.852 162)">Common <tspan x="13.0933" font-size="21" y="26">Image</tspan></text><rect fill="#00B050" x="341" width="121" height="39" y="466"/><text font-size="24" font-family="Calibri,Calibri_MSFontService,sans-serif" font-weight="400" transform="translate(355.682 493)">createdts<tspan x="-261.99" font-size="24" y="-70">XSA</tspan><tspan x="181.899" font-size="24" y="-72">xpfm</tspan><tspan x="28.8289" font-size="24" y="32">dtb</tspan></text><path fill="#FF0000" d="M0-0.333333 50.3493-0.333333 50.3493 214.745 49.6826 214.745 49.6826 0 50.016 0.333333 0 0.333333ZM54.016 213.412 50.016 221.412 46.016 213.412Z" transform="matrix(1.83697e-16 1 1 -1.83697e-16 119.5 435.5)"/><text font-size="24" font-family="Calibri,Calibri_MSFontService,sans-serif" font-weight="400" transform="translate(19.3076 682)">Software components can be generated from <tspan x="447.24" font-size="24" y="0">Petalinux</tspan><tspan x="542.34" font-size="24" y="0">or extracted from common image. We suggest using software </tspan><tspan x="0" font-size="24" y="29">components from the common image as it can </tspan>expedite the process of<tspan x="692.753" font-size="24" y="29">platform creation</tspan></text><path fill="#FF0000" d="M485.5 208.167 504.543 208.167 504.543 208.833 485.5 208.833ZM503.209 204.5 511.209 208.5 503.209 212.5Z"/><path fill="#FF0000" d="M0-0.333333 49.6052-0.333333 49.6052 91.6765 48.9386 91.6765 48.9386 0 49.2719 0.333333 0 0.333333ZM53.2719 90.3432 49.2719 98.3432 45.2719 90.3432Z" transform="matrix(1 0 0 -1 462.5 485.843)"/><text font-size="12" font-family="Calibri,Calibri_MSFontService,sans-serif" font-weight="400" transform="translate(347.845 224)">Uboot,bl31,rootfs,Image,<tspan x="0" font-size="12" y="15">sdk.sh</tspan><tspan fill="#7030A0" x="-285.178" y="363" font-size="24">Validation1</tspan><tspan fill="#7030A0" x="47.5106" y="362" font-size="24">Validation2</tspan></text><rect fill="#FFFFFF" x="10" width="216" height="25" y="0"/></g></svg>